<svg xmlns="http://www.w3.org/2000/svg" viewBox="0 0 64 64">
  <!-- Dark circular background -->
  <circle cx="32" cy="32" r="32" fill="#1a1a2e"/>
  
  <!-- Logo -->
  <svg x="8" y="3" width="48" height="52" viewBox="2030 1099 940 800">
    <path d="M2417.49,1317.69l85.3-138.83c152.51,228.22,307.43,454.81,467.05,678.14c-151.32-255.5-308.02-507.78-467.86-758.02c-8.16,12.98-120.56,187.98-132.01,206.18l-7.76,12.12c0,0,7.56,12.56,7.56,12.56c74.22,124.2,218.97,362.97,305.78,504.56l-169.2,1.72c-141.44-206.87-296.56-430.75-442.98-632.18c96.97,162.03,208.05,338.96,309.47,499.46l105.34,165.04l5.86,9.19l11.45,0.12l220.93,2.25l40.87,0.42c0,0-21.19-35.34-21.19-35.34C2658.04,1713.97,2501.66,1455.19,2417.49,1317.69z" fill="#ffffff"/>
    <path d="M2095.28,1854.5c36.6-78.64,82.11-177.76,113.21-249.79l-4.33-2.27c-27.3,43.67-53.43,87.94-80.17,131.9c-11.09,18.77-84.63,144.5-93.82,159.99c108.84,7.68,219.11,14.79,325.62-15.39c0,0,0-4.89,0-4.89C2270.49,1850.53,2182.68,1848.78,2095.28,1854.5z" fill="#ffffff"/>
  </svg>
</svg>
