<svg xmlns="http://www.w3.org/2000/svg" viewBox="63.360001525878914 165.13399809265135 448.2799987792969 232.05600148773195"> <svg xmlns="http://www.w3.org/2000/svg" xmlns:xlink="http://www.w3.org/1999/xlink" version="1.1" id="ffff_1" x="256" y="235.13399809265135" viewBox="2030.1700439453125 1098.97998046875 939.6700439453125 802.02880859375" xml:space="preserve" height="53.7718448638916" width="63" preserveAspectRatio="xMinYMin" enable-background="new 0 0 5000 3000" style="overflow: visible;"><path d="M2417.49,1317.69l85.3-138.83c152.51,228.22,307.43,454.81,467.05,678.14c-151.32-255.5-308.02-507.78-467.86-758.02   c-8.16,12.98-120.56,187.98-132.01,206.18l-7.76,12.12c0,0,7.56,12.56,7.56,12.56c74.22,124.2,218.97,362.97,305.78,504.56   l-169.2,1.72c-141.44-206.87-296.56-430.75-442.98-632.18c96.97,162.03,208.05,338.96,309.47,499.46l105.34,165.04l5.86,9.19   l11.45,0.12l220.93,2.25l40.87,0.42c0,0-21.19-35.34-21.19-35.34C2658.04,1713.97,2501.66,1455.19,2417.49,1317.69z" style="fill: #000000; fill-opacity: 1;"></path><path d="M2095.28,1854.5c36.6-78.64,82.11-177.76,113.21-249.79l-4.33-2.27c-27.3,43.67-53.43,87.94-80.17,131.9   c-11.09,18.77-84.63,144.5-93.82,159.99c108.84,7.68,219.11,14.79,325.62-15.39c0,0,0-4.89,0-4.89   C2270.49,1850.53,2182.68,1848.78,2095.28,1854.5z" style="fill: #000000; fill-opacity: 1;"></path></svg> <svg y="300.9999990463257" viewBox="2.8400001525878906 5.210000038146973 308.2799987792969 26.190000534057617" x="133.3600015258789" height="26.190000534057617" width="308.2799987792969" style="overflow: visible;"><g fill="#000000" fill-opacity="1" style=""><path d="M9.35 30.84Q7.53 30.84 5.85 30.33Q4.17 29.82 2.84 28.91L2.84 28.91L2.84 24.68Q3.75 27.02 5.62 28.23Q7.49 29.44 9.52 29.44L9.52 29.44Q11.55 29.44 12.92 28.09Q14.28 26.74 14.28 24.75L14.28 24.75Q14.28 23.42 13.74 22.47Q13.20 21.53 12.01 20.70Q10.82 19.88 8.65 18.87L8.65 18.87Q5.60 17.47 4.22 15.94Q2.84 14.42 2.84 12.25L2.84 12.25Q2.84 10.39 3.73 8.94Q4.62 7.49 6.14 6.70Q7.67 5.91 9.49 5.91L9.49 5.91Q11.06 5.91 12.57 6.35Q14.07 6.79 15.37 7.59L15.37 7.59L15.37 11.38Q14.53 9.45 12.83 8.38Q11.13 7.32 9.38 7.32L9.38 7.32Q7.39 7.32 6.16 8.61Q4.94 9.91 4.94 11.69L4.94 11.69Q4.94 12.98 5.67 13.91Q6.41 14.84 7.47 15.47Q8.54 16.10 10.47 17.01L10.47 17.01Q12.43 17.96 13.69 18.76Q14.95 19.57 15.79 20.86Q16.63 22.16 16.63 24.01L16.63 24.01Q16.63 26.11 15.63 27.65Q14.63 29.19 12.97 30.01Q11.31 30.84 9.35 30.84L9.35 30.84ZM37.73 21.07L29.02 21.07L26.77 26.64Q26.25 27.93 26.25 28.77L26.25 28.77Q26.25 29.93 27.30 30.42L27.30 30.42L22.29 30.42Q22.64 30.42 23.31 29.72Q23.97 29.02 24.85 26.95L24.85 26.95L33.98 5.21L43.05 27.06Q43.82 28.95 44.54 29.65Q45.26 30.35 45.67 30.42L45.67 30.42L39.87 30.42Q40.74 30.00 40.74 29.12L40.74 29.12Q40.74 28.39 40.18 27.02L40.18 27.02L37.73 21.07ZM29.61 19.64L37.17 19.64L33.36 10.29L29.61 19.64ZM65.87 8.19Q65.87 7.49 65.48 6.98Q65.10 6.48 64.30 6.34L64.30 6.34L70.17 6.34Q69.72 6.41 68.95 7.14Q68.18 7.88 67.34 9.87L67.34 9.87L58.48 31.26L49.49 9.77Q48.72 7.91 47.97 7.19Q47.21 6.48 46.73 6.34L46.73 6.34L52.57 6.34Q51.63 6.58 51.63 7.56L51.63 7.56Q51.63 8.09 51.87 8.68Q52.12 9.28 52.15 9.38L52.15 9.38L58.94 26.01L65.52 9.84Q65.87 9.03 65.87 8.19L65.87 8.19ZM74.55 18.66Q74.55 14.95 76.14 12.04Q77.73 9.14 80.62 7.53Q83.51 5.91 87.29 5.91L87.29 5.91Q90.44 5.91 93.19 7.30Q95.94 8.68 97.60 11.45Q99.26 14.21 99.26 18.10L99.26 18.10Q99.26 21.80 97.67 24.71Q96.08 27.62 93.19 29.23Q90.30 30.84 86.52 30.84L86.52 30.84Q83.37 30.84 80.62 29.45Q77.88 28.07 76.21 25.31Q74.55 22.54 74.55 18.66L74.55 18.66ZM96.46 18.62Q96.46 15.44 95.15 12.86Q93.84 10.29 91.54 8.84Q89.25 7.39 86.38 7.39L86.38 7.39Q83.75 7.39 81.71 8.71Q79.66 10.05 78.50 12.48Q77.35 14.91 77.35 18.13L77.35 18.13Q77.35 21.32 78.66 23.89Q79.98 26.46 82.27 27.91Q84.56 29.37 87.43 29.37L87.43 29.37Q90.06 29.37 92.10 28.04Q94.15 26.71 95.31 24.27Q96.46 21.84 96.46 18.62L96.46 18.62ZM124.67 6.34L129.61 6.34Q129.12 6.44 128.64 7.12Q128.17 7.80 128.17 9.52L128.17 9.52L128.17 31.40L110.25 10.50L110.25 27.27Q110.25 28.95 110.84 29.63Q111.44 30.31 112 30.42L112 30.42L107.06 30.42Q107.56 30.31 108.06 29.63Q108.57 28.95 108.57 27.23L108.57 27.23L108.57 9.73Q108.57 8.54 107.77 7.56Q106.96 6.58 105.73 6.34L105.73 6.34L110.08 6.34L126.49 25.48L126.49 9.52Q126.49 6.82 124.67 6.34L124.67 6.34ZM166.01 28.46Q162.72 30.42 157.22 30.42L157.22 30.42L150.33 30.42Q150.33 30.52 150.75 30.22Q151.17 29.93 151.50 29.12Q151.83 28.32 151.83 26.78L151.83 26.78L151.83 9.55Q151.83 8.19 151.50 7.47Q151.17 6.75 150.75 6.51Q150.33 6.27 150.33 6.34L150.33 6.34L157.19 6.34Q162.54 6.34 165.66 8.09L165.66 8.09Q168.42 9.63 169.93 12.25Q171.43 14.88 171.43 18.16L171.43 18.16Q171.43 21.73 170.01 24.34Q168.60 26.95 166.01 28.46L166.01 28.46ZM164.64 9.66Q163.10 8.64 161.35 8.19Q159.60 7.73 157.19 7.73L157.19 7.73L154.35 7.73L154.35 29.02L157.19 29.02Q160.06 29.02 161.89 28.53Q163.73 28.04 165.06 27.02L165.06 27.02Q166.78 25.69 167.70 23.54Q168.63 21.39 168.63 18.52L168.63 18.52Q168.63 15.47 167.56 13.18Q166.50 10.89 164.64 9.66L164.64 9.66ZM192.71 30.42L179.52 30.42Q179.52 30.52 179.94 30.26Q180.36 30.00 180.69 29.21Q181.02 28.42 181.02 26.92L181.02 26.92L181.02 9.73Q181.02 8.30 180.69 7.54Q180.36 6.79 179.94 6.51Q179.52 6.23 179.52 6.34L179.52 6.34L192.19 6.34L192.19 9.84Q191.56 7.73 188.41 7.73L188.41 7.73L183.54 7.73L183.54 17.68L189.56 17.68Q190.26 17.68 190.75 17.45Q191.24 17.22 191.49 16.98Q191.73 16.73 191.77 16.66L191.77 16.66L191.77 20.05Q191.73 19.98 191.49 19.74Q191.24 19.50 190.77 19.29Q190.30 19.08 189.60 19.08L189.60 19.08L183.54 19.08L183.54 29.02L189.00 29.02Q190.58 29.02 191.71 28.37Q192.85 27.72 193.34 26.71L193.34 26.71L192.71 30.42ZM207.52 30.84Q205.70 30.84 204.02 30.33Q202.34 29.82 201.01 28.91L201.01 28.91L201.01 24.68Q201.92 27.02 203.79 28.23Q205.66 29.44 207.69 29.44L207.69 29.44Q209.72 29.44 211.09 28.09Q212.45 26.74 212.45 24.75L212.45 24.75Q212.45 23.42 211.91 22.47Q211.37 21.53 210.18 20.70Q208.99 19.88 206.82 18.87L206.82 18.87Q203.77 17.47 202.39 15.94Q201.01 14.42 201.01 12.25L201.01 12.25Q201.01 10.39 201.90 8.94Q202.79 7.49 204.31 6.70Q205.84 5.91 207.66 5.91L207.66 5.91Q209.23 5.91 210.74 6.35Q212.24 6.79 213.54 7.59L213.54 7.59L213.54 11.38Q212.70 9.45 211.00 8.38Q209.30 7.32 207.55 7.32L207.55 7.32Q205.56 7.32 204.33 8.61Q203.11 9.91 203.11 11.69L203.11 11.69Q203.11 12.98 203.84 13.91Q204.58 14.84 205.64 15.47Q206.71 16.10 208.64 17.01L208.64 17.01Q210.60 17.96 211.86 18.76Q213.12 19.57 213.96 20.86Q214.80 22.16 214.80 24.01L214.80 24.01Q214.80 26.11 213.80 27.65Q212.80 29.19 211.14 30.01Q209.48 30.84 207.52 30.84L207.52 30.84ZM222.74 30.42Q222.74 30.52 223.16 30.26Q223.58 30.00 223.93 29.28Q224.28 28.56 224.28 27.16L224.28 27.16L224.28 9.59Q224.28 8.19 223.95 7.47Q223.62 6.75 223.20 6.51Q222.78 6.27 222.78 6.34L222.78 6.34L228.34 6.34Q228.34 6.27 227.92 6.51Q227.50 6.75 227.15 7.47Q226.80 8.19 226.80 9.59L226.80 9.59L226.80 27.16Q226.80 28.56 227.15 29.28Q227.50 30.00 227.92 30.24Q228.34 30.49 228.34 30.42L228.34 30.42L222.74 30.42ZM248.54 30.80Q245.21 30.80 242.38 29.40Q239.54 28.00 237.83 25.20Q236.11 22.40 236.11 18.38L236.11 18.38Q236.11 14.81 237.74 11.97Q239.37 9.14 242.32 7.53Q245.28 5.91 249.13 5.91L249.13 5.91Q251.58 5.91 253.56 6.48Q255.54 7.04 256.69 7.70L256.69 7.70L256.69 11.59Q255.61 9.70 253.45 8.54Q251.30 7.39 249.06 7.39L249.06 7.39Q245.95 7.39 243.65 8.70Q241.36 10.01 240.14 12.43Q238.91 14.84 238.91 18.10L238.91 18.10Q238.91 21.63 240.33 24.15Q241.75 26.67 244.09 27.93Q246.44 29.19 249.20 29.19L249.20 29.19Q250.46 29.19 251.81 28.89Q253.16 28.60 254.31 28.04L254.31 28.04L254.31 22.26Q254.31 21.18 253.96 20.56Q253.61 19.95 253.19 19.69Q252.77 19.43 252.77 19.50L252.77 19.50L258.37 19.50Q258.37 19.43 257.95 19.64Q257.53 19.85 257.18 20.42Q256.83 21 256.83 22.05L256.83 22.05L256.83 28.42Q254.98 29.58 252.82 30.19Q250.67 30.80 248.54 30.80L248.54 30.80ZM283.92 6.34L288.86 6.34Q288.37 6.44 287.89 7.12Q287.42 7.80 287.42 9.52L287.42 9.52L287.42 31.40L269.50 10.50L269.50 27.27Q269.50 28.95 270.10 29.63Q270.69 30.31 271.25 30.42L271.25 30.42L266.32 30.42Q266.81 30.31 267.31 29.63Q267.82 28.95 267.82 27.23L267.82 27.23L267.82 9.73Q267.82 8.54 267.02 7.56Q266.21 6.58 264.99 6.34L264.99 6.34L269.33 6.34L285.74 25.48L285.74 9.52Q285.74 6.82 283.92 6.34L283.92 6.34ZM303.84 30.84Q302.01 30.84 300.34 30.33Q298.66 29.82 297.32 28.91L297.32 28.91L297.32 24.68Q298.24 27.02 300.11 28.23Q301.98 29.44 304.01 29.44L304.01 29.44Q306.04 29.44 307.41 28.09Q308.77 26.74 308.77 24.75L308.77 24.75Q308.77 23.42 308.23 22.47Q307.69 21.53 306.50 20.70Q305.31 19.88 303.13 18.87L303.13 18.87Q300.09 17.47 298.71 15.94Q297.32 14.42 297.32 12.25L297.32 12.25Q297.32 10.39 298.22 8.94Q299.11 7.49 300.63 6.70Q302.16 5.91 303.98 5.91L303.98 5.91Q305.55 5.91 307.06 6.35Q308.56 6.79 309.86 7.59L309.86 7.59L309.86 11.38Q309.01 9.45 307.32 8.38Q305.62 7.32 303.87 7.32L303.87 7.32Q301.88 7.32 300.65 8.61Q299.43 9.91 299.43 11.69L299.43 11.69Q299.43 12.98 300.16 13.91Q300.89 14.84 301.96 15.47Q303.03 16.10 304.95 17.01L304.95 17.01Q306.92 17.96 308.18 18.76Q309.44 19.57 310.28 20.86Q311.12 22.16 311.12 24.01L311.12 24.01Q311.12 26.11 310.12 27.65Q309.12 29.19 307.46 30.01Q305.80 30.84 303.84 30.84L303.84 30.84Z" transform="translate(0, 0)"></path></g></svg></svg>